# xmcd
#
# Track frame offsets: 
#        150
#        24079
#        45485
#        76969
#        96623
#        117872
#        144072
#        163579
#        199408
#
# Disc length: 2997 seconds
#
# Revision: 0
# Processed by: cddbd v1.4PL0 Copyright (c) Steve Scherf et al.
# Submitted via: ExactAudioCopy v0.95a3
#
DISCID=6b0bb309
DTITLE=Jonny Lang  - Live
DYEAR=1900
DGENRE=
TTITLE0=1-01 Still Rainin'
TTITLE1=1-02 Good Mornin' Little School Girl
TTITLE2=1-03 A Quitter Never Wins
TTITLE3=1-04 The Levee
TTITLE4=1-05 Home in the Blues
TTITLE5=1-06 Darker Side
TTITLE6=1-07 Right Back
TTITLE7=1-08 There's Gotta Be a Change
TTITLE8=1-09 Second Guessing
EXTD=
EXTT0=
EXTT1=
EXTT2=
EXTT3=
EXTT4=
EXTT5=
EXTT6=
EXTT7=
EXTT8=
PLAYORDER=
